<?xml version="1.0" standalone="no"?>
<svg width="567.429" height="413.846" viewBox="0 0 567.429 413.846" xmlns="http://www.w3.org/2000/svg" shape-rendering="crispEdges">
<title>
Rate__double_el_Eta1.2_dR0.6.svg
</title>
<desc>
Creator: ROOT Version 6.12/07
CreationDate: Mon Jul  5 10:00:43 2021</desc>
<defs>
</defs>
<rect x="0.5" y="0" width="566.929" height="413.346" fill="white"/>
<rect x="57.1929" y="41.3346" width="453.543" height="330.677" fill="white"/>
<rect x="57.1929" y="41.3346" width="453.543" height="330.677" fill="none" stroke="black"/>
<rect x="57.1929" y="41.3346" width="453.543" height="330.677" fill="white"/>
<rect x="57.1929" y="41.3346" width="453.543" height="330.677" fill="none" stroke="black"/>
<rect x="465.382" y="188.302" width="45.3543" height="36.7419" fill="#f9f90e"/>
<text xml:space="preserve" x="481.157" y="209.517" fill="black" font-size="8.08434" font-family="Helvetica" font-weight="bold">109</text>
<path d="M57.1929,372.012h 453.543" fill="none" stroke="black"/>
<path d="M57.1929,362.091v 9.92031" fill="none" stroke="black"/>
<path d="M66.2638,367.052v 4.96016" fill="none" stroke="black"/>
<path d="M75.3346,367.052v 4.96016" fill="none" stroke="black"/>
<path d="M84.4055,367.052v 4.96016" fill="none" stroke="black"/>
<path d="M93.4764,367.052v 4.96016" fill="none" stroke="black"/>
<path d="M102.547,362.091v 9.92031" fill="none" stroke="black"/>
<path d="M111.618,367.052v 4.96016" fill="none" stroke="black"/>
<path d="M120.689,367.052v 4.96016" fill="none" stroke="black"/>
<path d="M129.76,367.052v 4.96016" fill="none" stroke="black"/>
<path d="M138.831,367.052v 4.96016" fill="none" stroke="black"/>
<path d="M147.902,362.091v 9.92031" fill="none" stroke="black"/>
<path d="M156.972,367.052v 4.96016" fill="none" stroke="black"/>
<path d="M166.043,367.052v 4.96016" fill="none" stroke="black"/>
<path d="M175.114,367.052v 4.96016" fill="none" stroke="black"/>
<path d="M184.185,367.052v 4.96016" fill="none" stroke="black"/>
<path d="M193.256,362.091v 9.92031" fill="none" stroke="black"/>
<path d="M202.327,367.052v 4.96016" fill="none" stroke="black"/>
<path d="M211.398,367.052v 4.96016" fill="none" stroke="black"/>
<path d="M220.469,367.052v 4.96016" fill="none" stroke="black"/>
<path d="M229.539,367.052v 4.96016" fill="none" stroke="black"/>
<path d="M238.61,362.091v 9.92031" fill="none" stroke="black"/>
<path d="M247.681,367.052v 4.96016" fill="none" stroke="black"/>
<path d="M256.752,367.052v 4.96016" fill="none" stroke="black"/>
<path d="M265.823,367.052v 4.96016" fill="none" stroke="black"/>
<path d="M274.894,367.052v 4.96016" fill="none" stroke="black"/>
<path d="M283.965,362.091v 9.92031" fill="none" stroke="black"/>
<path d="M293.035,367.052v 4.96016" fill="none" stroke="black"/>
<path d="M302.106,367.052v 4.96016" fill="none" stroke="black"/>
<path d="M311.177,367.052v 4.96016" fill="none" stroke="black"/>
<path d="M320.248,367.052v 4.96016" fill="none" stroke="black"/>
<path d="M329.319,362.091v 9.92031" fill="none" stroke="black"/>
<path d="M338.39,367.052v 4.96016" fill="none" stroke="black"/>
<path d="M347.461,367.052v 4.96016" fill="none" stroke="black"/>
<path d="M356.531,367.052v 4.96016" fill="none" stroke="black"/>
<path d="M365.602,367.052v 4.96016" fill="none" stroke="black"/>
<path d="M374.673,362.091v 9.92031" fill="none" stroke="black"/>
<path d="M383.744,367.052v 4.96016" fill="none" stroke="black"/>
<path d="M392.815,367.052v 4.96016" fill="none" stroke="black"/>
<path d="M401.886,367.052v 4.96016" fill="none" stroke="black"/>
<path d="M410.957,367.052v 4.96016" fill="none" stroke="black"/>
<path d="M420.028,362.091v 9.92031" fill="none" stroke="black"/>
<path d="M429.098,367.052v 4.96016" fill="none" stroke="black"/>
<path d="M438.169,367.052v 4.96016" fill="none" stroke="black"/>
<path d="M447.24,367.052v 4.96016" fill="none" stroke="black"/>
<path d="M456.311,367.052v 4.96016" fill="none" stroke="black"/>
<path d="M465.382,362.091v 9.92031" fill="none" stroke="black"/>
<path d="M474.453,367.052v 4.96016" fill="none" stroke="black"/>
<path d="M483.524,367.052v 4.96016" fill="none" stroke="black"/>
<path d="M492.594,367.052v 4.96016" fill="none" stroke="black"/>
<path d="M501.665,367.052v 4.96016" fill="none" stroke="black"/>
<path d="M510.736,362.091v 9.92031" fill="none" stroke="black"/>
<text xml:space="preserve" x="54.5384" y="385.379" fill="black" font-size="13.7726" font-family="Helvetica">1</text>
<text xml:space="preserve" x="98.6224" y="385.379" fill="black" font-size="13.7726" font-family="Helvetica">2</text>
<text xml:space="preserve" x="143.654" y="385.379" fill="black" font-size="13.7726" font-family="Helvetica">3</text>
<text xml:space="preserve" x="189.16" y="385.379" fill="black" font-size="13.7726" font-family="Helvetica">4</text>
<text xml:space="preserve" x="234.666" y="385.379" fill="black" font-size="13.7726" font-family="Helvetica">5</text>
<text xml:space="preserve" x="280.172" y="385.379" fill="black" font-size="13.7726" font-family="Helvetica">6</text>
<text xml:space="preserve" x="325.204" y="385.379" fill="black" font-size="13.7726" font-family="Helvetica">7</text>
<text xml:space="preserve" x="370.71" y="385.379" fill="black" font-size="13.7726" font-family="Helvetica">8</text>
<text xml:space="preserve" x="416.216" y="385.379" fill="black" font-size="13.7726" font-family="Helvetica">9</text>
<text xml:space="preserve" x="457.93" y="385.379" fill="black" font-size="13.7726" font-family="Helvetica">10</text>
<text xml:space="preserve" x="504.384" y="385.379" fill="black" font-size="13.7726" font-family="Helvetica">11</text>
<text xml:space="preserve" x="473.573" y="401.496" fill="black" font-size="13.7726" font-family="Helvetica"> [GeV]</text>
<text xml:space="preserve" x="465.989" y="405.762" fill="black" font-size="9.34839" font-family="Helvetica"> L</text>
<text xml:space="preserve" x="461.248" y="405.762" fill="black" font-size="9.34839" font-family="Times">&#0947;</text>
<text xml:space="preserve" x="445.606" y="405.762" fill="black" font-size="9.34839" font-family="Helvetica">T e/</text>
<text xml:space="preserve" x="356.016" y="401.496" fill="black" font-size="13.7726" font-family="Helvetica">Threshold on E</text>
<path d="M57.1929,372.012v -330.677" fill="none" stroke="black"/>
<path d="M70.7992,372.012h -13.6063" fill="none" stroke="black"/>
<path d="M63.9961,365.398h -6.80315" fill="none" stroke="black"/>
<path d="M63.9961,358.785h -6.80315" fill="none" stroke="black"/>
<path d="M63.9961,352.171h -6.80315" fill="none" stroke="black"/>
<path d="M63.9961,345.558h -6.80315" fill="none" stroke="black"/>
<path d="M70.7992,338.944h -13.6063" fill="none" stroke="black"/>
<path d="M63.9961,332.33h -6.80315" fill="none" stroke="black"/>
<path d="M63.9961,325.717h -6.80315" fill="none" stroke="black"/>
<path d="M63.9961,319.103h -6.80315" fill="none" stroke="black"/>
<path d="M63.9961,312.49h -6.80315" fill="none" stroke="black"/>
<path d="M70.7992,305.876h -13.6063" fill="none" stroke="black"/>
<path d="M63.9961,299.263h -6.80315" fill="none" stroke="black"/>
<path d="M63.9961,292.649h -6.80315" fill="none" stroke="black"/>
<path d="M63.9961,286.036h -6.80315" fill="none" stroke="black"/>
<path d="M63.9961,279.422h -6.80315" fill="none" stroke="black"/>
<path d="M70.7992,272.809h -13.6063" fill="none" stroke="black"/>
<path d="M63.9961,266.195h -6.80315" fill="none" stroke="black"/>
<path d="M63.9961,259.581h -6.80315" fill="none" stroke="black"/>
<path d="M63.9961,252.968h -6.80315" fill="none" stroke="black"/>
<path d="M63.9961,246.354h -6.80315" fill="none" stroke="black"/>
<path d="M70.7992,239.741h -13.6063" fill="none" stroke="black"/>
<path d="M63.9961,233.127h -6.80315" fill="none" stroke="black"/>
<path d="M63.9961,226.514h -6.80315" fill="none" stroke="black"/>
<path d="M63.9961,219.9h -6.80315" fill="none" stroke="black"/>
<path d="M63.9961,213.287h -6.80315" fill="none" stroke="black"/>
<path d="M70.7992,206.673h -13.6063" fill="none" stroke="black"/>
<path d="M63.9961,200.06h -6.80315" fill="none" stroke="black"/>
<path d="M63.9961,193.446h -6.80315" fill="none" stroke="black"/>
<path d="M63.9961,186.833h -6.80315" fill="none" stroke="black"/>
<path d="M63.9961,180.219h -6.80315" fill="none" stroke="black"/>
<path d="M70.7992,173.605h -13.6063" fill="none" stroke="black"/>
<path d="M63.9961,166.992h -6.80315" fill="none" stroke="black"/>
<path d="M63.9961,160.378h -6.80315" fill="none" stroke="black"/>
<path d="M63.9961,153.765h -6.80315" fill="none" stroke="black"/>
<path d="M63.9961,147.151h -6.80315" fill="none" stroke="black"/>
<path d="M70.7992,140.538h -13.6063" fill="none" stroke="black"/>
<path d="M63.9961,133.924h -6.80315" fill="none" stroke="black"/>
<path d="M63.9961,127.311h -6.80315" fill="none" stroke="black"/>
<path d="M63.9961,120.697h -6.80315" fill="none" stroke="black"/>
<path d="M63.9961,114.084h -6.80315" fill="none" stroke="black"/>
<path d="M70.7992,107.47h -13.6063" fill="none" stroke="black"/>
<path d="M63.9961,100.857h -6.80315" fill="none" stroke="black"/>
<path d="M63.9961,94.243h -6.80315" fill="none" stroke="black"/>
<path d="M63.9961,87.6294h -6.80315" fill="none" stroke="black"/>
<path d="M63.9961,81.0159h -6.80315" fill="none" stroke="black"/>
<path d="M70.7992,74.4023h -13.6063" fill="none" stroke="black"/>
<path d="M63.9961,67.7888h -6.80315" fill="none" stroke="black"/>
<path d="M63.9961,61.1753h -6.80315" fill="none" stroke="black"/>
<path d="M63.9961,54.5617h -6.80315" fill="none" stroke="black"/>
<path d="M63.9961,47.9482h -6.80315" fill="none" stroke="black"/>
<path d="M70.7992,41.3346h -13.6063" fill="none" stroke="black"/>
<path d="M70.7992,41.3346h -13.6063" fill="none" stroke="black"/>
<text xml:space="preserve" x="39.8437" y="376.373" fill="black" font-size="13.7726" font-family="Helvetica">10</text>
<text xml:space="preserve" x="30.8373" y="343.665" fill="black" font-size="13.7726" font-family="Helvetica">10.1</text>
<text xml:space="preserve" x="28.4672" y="310.484" fill="black" font-size="13.7726" font-family="Helvetica">10.2</text>
<text xml:space="preserve" x="28.4672" y="277.302" fill="black" font-size="13.7726" font-family="Helvetica">10.3</text>
<text xml:space="preserve" x="28.4672" y="244.121" fill="black" font-size="13.7726" font-family="Helvetica">10.4</text>
<text xml:space="preserve" x="28.4672" y="211.413" fill="black" font-size="13.7726" font-family="Helvetica">10.5</text>
<text xml:space="preserve" x="28.4672" y="178.232" fill="black" font-size="13.7726" font-family="Helvetica">10.6</text>
<text xml:space="preserve" x="28.4672" y="145.05" fill="black" font-size="13.7726" font-family="Helvetica">10.7</text>
<text xml:space="preserve" x="28.4672" y="111.869" fill="black" font-size="13.7726" font-family="Helvetica">10.8</text>
<text xml:space="preserve" x="28.4672" y="78.6875" fill="black" font-size="13.7726" font-family="Helvetica">10.9</text>
<text xml:space="preserve" x="41.7398" y="46.4541" fill="black" font-size="13.7726" font-family="Helvetica">11</text>
<g transform="rotate(-90,13.2986,78.2135)">
<text xml:space="preserve" x="13.2986" y="78.2135" fill="black" font-size="13.7726" font-family="Helvetica"> [GeV]</text>
</g>
<g transform="rotate(-90,17.5648,90.064)">
<text xml:space="preserve" x="17.5648" y="90.064" fill="black" font-size="9.34839" font-family="Helvetica"> sL</text>
</g>
<g transform="rotate(-90,17.5648,94.8042)">
<text xml:space="preserve" x="17.5648" y="94.8042" fill="black" font-size="9.34839" font-family="Times">&#0947;</text>
</g>
<g transform="rotate(-90,17.5648,110.447)">
<text xml:space="preserve" x="17.5648" y="110.447" fill="black" font-size="9.34839" font-family="Helvetica">T e/</text>
</g>
<g transform="rotate(-90,13.2986,200.037)">
<text xml:space="preserve" x="13.2986" y="200.037" fill="black" font-size="13.7726" font-family="Helvetica">Threshold on E</text>
</g>
<rect x="513.571" y="355.478" width="25.5118" height="16.5339" fill="#263da8"/>
<rect x="513.571" y="338.944" width="25.5118" height="16.5339" fill="#1652cc"/>
<rect x="513.571" y="322.41" width="25.5118" height="16.5339" fill="#1063db"/>
<rect x="513.571" y="305.876" width="25.5118" height="16.5339" fill="#1171d8"/>
<rect x="513.571" y="289.342" width="25.5118" height="16.5339" fill="#1380d5"/>
<rect x="513.571" y="272.809" width="25.5118" height="16.5339" fill="#0e8ed0"/>
<rect x="513.571" y="256.275" width="25.5118" height="16.5339" fill="#089dcc"/>
<rect x="513.571" y="239.741" width="25.5118" height="16.5339" fill="#0da7c2"/>
<rect x="513.571" y="223.207" width="25.5118" height="16.5339" fill="#1dafb3"/>
<rect x="513.571" y="206.673" width="25.5118" height="16.5339" fill="#2db7a3"/>
<rect x="513.571" y="190.139" width="25.5118" height="16.5339" fill="#52ba91"/>
<rect x="513.571" y="173.605" width="25.5118" height="16.5339" fill="#73bd80"/>
<rect x="513.571" y="157.072" width="25.5118" height="16.5339" fill="#94be71"/>
<rect x="513.571" y="140.538" width="25.5118" height="16.5339" fill="#b2bc65"/>
<rect x="513.571" y="124.004" width="25.5118" height="16.5339" fill="#d0ba59"/>
<rect x="513.571" y="107.47" width="25.5118" height="16.5339" fill="#e1bf4a"/>
<rect x="513.571" y="90.9362" width="25.5118" height="16.5339" fill="#f4c53a"/>
<rect x="513.571" y="74.4023" width="25.5118" height="16.5339" fill="#fcd12b"/>
<rect x="513.571" y="57.8685" width="25.5118" height="16.5339" fill="#fae61c"/>
<rect x="513.571" y="41.3346" width="25.5118" height="16.5339" fill="#f9f90e"/>
<path d="M539.083,372.012v -330.677" fill="none" stroke="black"/>
<path d="M525.476,372.012h 13.6063" fill="none" stroke="black"/>
<path d="M525.476,311.337h 13.6063" fill="none" stroke="black"/>
<path d="M525.476,250.662h 13.6063" fill="none" stroke="black"/>
<path d="M525.476,189.988h 13.6063" fill="none" stroke="black"/>
<path d="M525.476,129.313h 13.6063" fill="none" stroke="black"/>
<path d="M525.476,68.6382h 13.6063" fill="none" stroke="black"/>
<path d="M525.476,68.6382h 13.6063" fill="none" stroke="black"/>
<text xml:space="preserve" x="541.832" y="376.373" fill="black" font-size="13.7726" font-family="Helvetica">0</text>
<text xml:space="preserve" x="541.832" y="315.698" fill="black" font-size="13.7726" font-family="Helvetica">20</text>
<text xml:space="preserve" x="541.832" y="255.023" fill="black" font-size="13.7726" font-family="Helvetica">40</text>
<text xml:space="preserve" x="541.832" y="194.349" fill="black" font-size="13.7726" font-family="Helvetica">60</text>
<text xml:space="preserve" x="541.832" y="133.674" fill="black" font-size="13.7726" font-family="Helvetica">80</text>
<text xml:space="preserve" x="541.832" y="72.9992" fill="black" font-size="13.7726" font-family="Helvetica">100</text>
<text xml:space="preserve" x="147.447" y="19.4349" fill="black" font-size="19.5739" font-family="Helvetica">Rate (Double_el_eta1.2_dR1.0)</text></svg>
